<?xml version="1.0" encoding="UTF-8"?>
<svg id="Layer_1" data-name="Layer 1" xmlns="http://www.w3.org/2000/svg" viewBox="0 0 1312.12 835.91">
  <defs>
    <style>
      .cls-1, .cls-2, .cls-3, .cls-4, .cls-5 {
        stroke-miterlimit: 10;
      }

      .cls-1, .cls-2, .cls-4 {
        stroke: #fff;
      }

      .cls-1, .cls-2, .cls-5 {
        fill: #231f20;
      }

      .cls-2 {
        stroke-width: 4px;
      }

      .cls-3, .cls-4 {
        fill: #fff;
      }

      .cls-3, .cls-5 {
        stroke: #231f20;
      }
    </style>
  </defs>
  <g>
    <polygon class="cls-4" points="1090.56 834.74 463.09 834.74 362 698.22 428.79 698.22 385.27 631.84 486.23 518.11 373.8 518.11 510.78 331.96 436.04 331.96 647.44 .93 858.77 331.96 786.4 331.96 923.39 518.11 809.48 518.11 910.12 631.44 866.98 697.29 950.12 697.29 848.52 834.47 1090.3 834.47 1090.56 834.74"/>
    <polygon class="cls-4" points=".99 835.41 102.59 698.22 19.45 698.22 112.4 556.42 71.69 556.42 226.17 311.93 380.59 556.42 335.85 556.42 385.27 631.84 428.79 698.22 362 698.22 463.09 834.74 463.6 835.41 .99 835.41"/>
    <polygon class="cls-4" points="1311.12 834.47 848.52 834.47 950.12 697.29 866.98 697.29 910.12 631.44 959.92 555.48 919.22 555.48 1073.7 310.99 1228.11 555.48 1183.37 555.48 1276.32 697.29 1209.53 697.29 1311.12 834.47"/>
  </g>
  <rect class="cls-5" x="541.26" y="707.13" width="87.75" height="119.67"/>
  <polygon class="cls-5" points="588.37 442.26 635.89 450.56 635.89 526.83 593.81 484.91 548.8 529.73 548.8 449.97 588.37 442.26"/>
  <polygon class="cls-1" points="651.11 355.1 642.63 445.08 630.19 443.27 587.74 437.18 552.4 442.84 540.31 444.78 530.87 354.97 536.91 354 643.44 354 651.11 355.1"/>
  <path class="cls-2" d="M830.42,565.29h-21.74c-.19,0-.34.15-.34.34v136.25c0,.19-.15.34-.34.34h-302.44c-.19,0-.34-.15-.34-.34v-136.25c0-.19-.15-.34-.34-.34h-26.85c-.33,0-.47-.43-.19-.62l111.81-77.67,64.39-44.68c.12-.08.27-.08.39,0l60.18,41.77,116.01,80.57c.27.19.14.62-.19.62Z"/>
  <path class="cls-1" d="M667.76,350.43h-153.63c-.15,0-.21-.2-.1-.3l77.04-68.82,76.84,68.65c.18.16.08.48-.15.48Z"/>
  <rect class="cls-3" x="620.94" y="532.86" width="70.22" height="96.92"/>
  <path class="cls-3" d="M599.51,555.75v74.03h-70.25v-74.03h.14s.04-.09.1-.11l69.62-19.44c.1-.04.25,0,.25.09v19.47h.14Z"/>
  <path class="cls-3" d="M711.57,555.75v74.03h70.25v-74.03h-.14s-.04-.09-.1-.11l-69.62-19.44c-.1-.04-.25,0-.25.09v19.47h-.14Z"/>
  <rect class="cls-4" x="530.87" y="636.67" width="68.64" height="49.05"/>
  <rect class="cls-4" x="712.37" y="636.67" width="68.64" height="49.05"/>
  <rect class="cls-4" x="620.94" y="636.67" width="70.22" height="49.05"/>
</svg>