<?xml version="1.0" encoding="UTF-8"?>
<svg id="Layer_1" data-name="Layer 1" xmlns="http://www.w3.org/2000/svg" viewBox="0 0 969.13 617.45">
  <defs>
    <style>
      .cls-1 {
        stroke-width: 4px;
      }

      .cls-1, .cls-2, .cls-3, .cls-4, .cls-5 {
        stroke-miterlimit: 10;
      }

      .cls-1, .cls-2, .cls-4 {
        fill: #fff;
      }

      .cls-1, .cls-5 {
        stroke: #231f20;
      }

      .cls-2 {
        stroke: #000;
      }

      .cls-3, .cls-4 {
        stroke: #fff;
      }

      .cls-3, .cls-5 {
        fill: #231f20;
      }
    </style>
  </defs>
  <g>
    <polygon class="cls-5" points="805.32 616.45 342.11 616.45 267.49 515.68 316.8 515.68 284.67 466.68 359.2 382.71 276.2 382.71 377.32 245.3 322.15 245.3 478.2 .93 634.21 245.3 580.79 245.3 681.91 382.71 597.82 382.71 672.11 466.38 640.27 514.99 701.64 514.99 626.64 616.25 805.13 616.25 805.32 616.45"/>
    <polygon class="cls-5" points=".99 616.95 75.99 515.68 14.62 515.68 83.23 411 53.19 411 167.22 230.51 281.21 411 248.19 411 284.67 466.68 316.8 515.68 267.49 515.68 342.11 616.45 342.49 616.95 .99 616.95"/>
    <polygon class="cls-5" points="968.14 616.25 626.64 616.25 701.64 514.99 640.27 514.99 672.11 466.38 708.88 410.31 678.83 410.31 792.87 229.82 906.86 410.31 873.83 410.31 942.45 514.99 893.14 514.99 968.14 616.25"/>
  </g>
  <rect class="cls-4" x="399.82" y="522.25" width="64.78" height="88.34"/>
  <polygon class="cls-4" points="434.6 326.72 469.68 332.85 469.68 389.15 438.61 358.21 405.39 391.29 405.39 332.41 434.6 326.72"/>
  <polygon class="cls-2" points="480.91 262.38 474.66 328.8 465.47 327.47 434.14 322.97 408.05 327.15 399.12 328.58 392.15 262.28 396.61 261.57 475.25 261.57 480.91 262.38"/>
  <path class="cls-1" d="M613.28,417.55h-16.05c-.14,0-.25.11-.25.25v100.58c0,.14-.11.25-.25.25h-223.26c-.14,0-.25-.11-.25-.25v-100.58c0-.14-.11-.25-.25-.25h-19.82c-.25,0-.35-.32-.14-.46l82.54-57.33,47.53-32.98c.09-.06.2-.06.29,0l44.43,30.84,85.64,59.48c.2.14.1.46-.14.46Z"/>
  <path class="cls-2" d="M493.2,258.94h-113.41c-.11,0-.16-.15-.07-.22l56.87-50.81,56.72,50.68c.13.12.06.35-.11.35Z"/>
  <rect class="cls-3" x="458.64" y="393.6" width="51.84" height="71.55"/>
  <path class="cls-3" d="M442.82,410.5v54.65h-51.86v-54.65h.1s.03-.06.08-.08l51.39-14.35c.08-.03.18,0,.18.06v14.37h.1Z"/>
  <path class="cls-3" d="M525.54,410.5v54.65h51.86v-54.65h-.1s-.03-.06-.08-.08l-51.39-14.35c-.08-.03-.18,0-.18.06v14.37h-.1Z"/>
  <rect class="cls-5" x="392.15" y="470.24" width="50.67" height="36.21"/>
  <rect class="cls-5" x="526.14" y="470.24" width="50.67" height="36.21"/>
  <rect class="cls-5" x="458.64" y="470.24" width="51.84" height="36.21"/>
</svg>