<?xml version="1.0" encoding="UTF-8"?>
<svg id="Layer_2" data-name="Layer 2" xmlns="http://www.w3.org/2000/svg" viewBox="0 0 1395.49 1395.49">
  <defs>
    <style>
      .cls-1, .cls-2, .cls-3 {
        fill: #231f20;
      }

      .cls-4 {
        stroke-width: 4px;
      }

      .cls-4, .cls-5, .cls-6, .cls-2, .cls-7, .cls-3 {
        stroke-miterlimit: 10;
      }

      .cls-4, .cls-5, .cls-6, .cls-7 {
        fill: #fff;
      }

      .cls-4, .cls-5, .cls-3 {
        stroke: #231f20;
      }

      .cls-5 {
        stroke-width: 10px;
      }

      .cls-6 {
        stroke: #000;
      }

      .cls-2, .cls-7 {
        stroke: #fff;
      }
    </style>
  </defs>
  <circle class="cls-5" cx="697.74" cy="697.74" r="692.74"/>
  <g>
    <g>
      <g>
        <polygon class="cls-3" points="1016.55 943.81 553.35 943.81 478.73 843.04 528.03 843.04 495.9 794.04 570.43 710.08 487.43 710.08 588.55 572.66 533.38 572.66 689.44 328.29 845.45 572.66 792.03 572.66 893.15 710.08 809.06 710.08 883.35 793.74 851.51 842.35 912.88 842.35 837.88 943.62 1016.36 943.62 1016.55 943.81"/>
        <polygon class="cls-3" points="212.23 944.31 287.23 843.04 225.86 843.04 294.47 738.36 264.42 738.36 378.46 557.88 492.45 738.36 459.42 738.36 495.9 794.04 528.03 843.04 478.73 843.04 553.35 943.81 553.73 944.31 212.23 944.31"/>
        <polygon class="cls-3" points="1179.38 943.62 837.88 943.62 912.88 842.35 851.51 842.35 883.35 793.74 920.12 737.67 890.07 737.67 1004.11 557.18 1118.1 737.67 1085.07 737.67 1153.68 842.35 1104.38 842.35 1179.38 943.62"/>
      </g>
      <rect class="cls-7" x="611.05" y="849.61" width="64.78" height="88.34"/>
      <polygon class="cls-7" points="645.83 654.09 680.92 660.21 680.92 716.51 649.85 685.57 616.62 718.65 616.62 659.78 645.83 654.09"/>
      <polygon class="cls-6" points="692.15 589.74 685.89 656.16 676.71 654.83 645.37 650.34 619.28 654.51 610.36 655.95 603.39 589.64 607.85 588.93 686.49 588.93 692.15 589.74"/>
      <path class="cls-4" d="M824.52,744.91h-16.05c-.14,0-.25.11-.25.25v100.58c0,.14-.11.25-.25.25h-223.26c-.14,0-.25-.11-.25-.25v-100.58c0-.14-.11-.25-.25-.25h-19.82c-.25,0-.35-.32-.14-.46l82.54-57.33,47.53-32.98c.09-.06.2-.06.29,0l44.43,30.84,85.64,59.48c.2.14.1.46-.14.46Z"/>
      <path class="cls-6" d="M704.44,586.3h-113.41c-.11,0-.16-.15-.07-.22l56.87-50.81,56.72,50.68c.13.12.06.35-.11.35Z"/>
      <rect class="cls-2" x="669.88" y="720.96" width="51.84" height="71.55"/>
      <path class="cls-2" d="M654.06,737.87v54.65h-51.86v-54.65h.1s.03-.06.08-.08l51.39-14.35c.08-.03.18,0,.18.06v14.37h.1Z"/>
      <path class="cls-2" d="M736.78,737.87v54.65h51.86v-54.65h-.1s-.03-.06-.08-.08l-51.39-14.35c-.08-.03-.18,0-.18.06v14.37h-.1Z"/>
      <rect class="cls-3" x="603.39" y="797.6" width="50.67" height="36.21"/>
      <rect class="cls-3" x="737.37" y="797.6" width="50.67" height="36.21"/>
      <rect class="cls-3" x="669.88" y="797.6" width="51.84" height="36.21"/>
    </g>
    <g>
      <path class="cls-1" d="M214.06,1002.47h9.59l12.24,34.68,12.51-34.68h9.52l-17.61,48.82h-8.91l-17.34-48.82Z"/>
      <path class="cls-1" d="M265.47,1002.47h26.65v9.11h-17.34v8.7h17.34v9.11h-17.34v12.78h17.34v9.11h-26.65v-48.82Z"/>
      <path class="cls-1" d="M298.18,1002.47h29.51l-17.41,39.98h16.32v8.84h-29.85l17.34-39.71h-15.91v-9.11ZM298.72,989.41h10l3.67,4.42,3.6-4.42h9.86l-9.86,9.38h-7.27l-10-9.38Z"/>
      <path class="cls-1" d="M349.65,1002.47h9.38l18.83,48.82h-9.65l-3.81-10.06h-19.92l-4.01,10.06h-9.66l18.83-48.82ZM354.41,1015.39l-6.46,16.73h12.92l-6.46-16.73Z"/>
      <path class="cls-1" d="M400.38,1002.47h9.59l12.24,34.68,12.51-34.68h9.52l-17.61,48.82h-8.91l-17.34-48.82Z"/>
      <path class="cls-1" d="M470.9,1002.47h9.31v16.79l13.26-16.79h11.22l-17.13,21.76,18.77,27.06h-11.01l-15.09-21.69v21.69h-9.31v-48.82Z"/>
      <path class="cls-1" d="M557.93,1027.01c0,14.35-11.22,25.43-25.23,25.43s-25.57-11.42-25.57-25.63,11.56-25.57,25.43-25.57,25.36,10.88,25.36,25.77ZM516.53,1027.01c0,9.93,7.48,16.52,16.11,16.52s15.91-7.28,15.91-16.59-6.73-16.79-16.05-16.79c-8.77,0-15.98,6.8-15.98,16.86Z"/>
      <path class="cls-1" d="M567.25,1002.47h11.35c6.19,0,10.54.75,13.8,3.94,2.45,2.38,3.94,6.05,3.94,10.2,0,6.39-3.2,10.74-9.38,12.99l11.56,21.69h-10.13l-10.95-20.67h-.88v20.67h-9.31v-48.82ZM576.57,1021.57h4.28c4.22,0,6.39-1.7,6.39-5.03s-2.24-4.96-6.66-4.96h-4.01v10Z"/>
      <path class="cls-1" d="M605.74,1002.47h9.32v33.04c0,5.3,2.58,8.02,7.07,8.02,2.65,0,5.03-1.09,6.19-2.92,1.02-1.56,1.16-3.81,1.16-6.39v-31.75h9.32v31.07c0,5.37-.27,9.45-3.94,13.73-3.13,3.6-7.21,5.17-12.51,5.17-5.03,0-9.04-1.43-12.1-4.62-3.94-4.08-4.49-8.5-4.49-14.82v-30.53Z"/>
      <path class="cls-1" d="M649.6,1002.47h8.91l20.94,32.09v-32.09h9.32v48.82h-8.98l-20.87-32.02v32.02h-9.31v-48.82Z"/>
      <path class="cls-1" d="M714.81,1002.47h9.38l18.83,48.82h-9.66l-3.81-10.06h-19.92l-4.01,10.06h-9.65l18.83-48.82ZM719.57,1015.39l-6.46,16.73h12.92l-6.46-16.73ZM721.13,985.81h10.67l-12.1,12.99h-6.53l7.96-12.99Z"/>
      <path class="cls-1" d="M791.85,1043.13c-6.46,6.32-12.04,9.38-21.21,9.38-15.3,0-25.84-10.67-25.84-25.7s11.97-25.57,25.97-25.57c8.09,0,15.91,3.54,21.28,9.79l-6.53,6.25c-4.42-4.69-9.25-7.14-14.96-7.14-9.18,0-16.66,7.07-16.66,16.66,0,10.06,7.21,16.79,16.86,16.79,6.05,0,10.13-2.45,14.75-7.07l6.32,6.6Z"/>
      <path class="cls-1" d="M800.29,1002.47h9.31v18.36h16.46v-18.36h9.31v48.82h-9.31v-21.35h-16.46v21.35h-9.31v-48.82Z"/>
      <path class="cls-1" d="M869.1,1037.21c2.24,4.21,4.83,6.39,8.09,6.39s5.64-2.04,5.64-4.56c0-1.77-1.16-3.81-3.13-5.44-10.13-8.5-16.11-13.12-16.11-20.06s6.05-12.31,13.39-12.31c6.19,0,10.27,3.33,14.14,7.82l-6.94,6.12c-2.31-3.26-4.69-5.03-7.34-5.03-2.45,0-4.15,1.43-4.15,3.4s1.43,3.13,2.86,4.35c9.11,8.02,16.39,11.83,16.39,20.74,0,8.16-6.12,13.87-14.96,13.87-7.14,0-12.1-3.47-15.71-10.61l7.82-4.69Z"/>
      <path class="cls-1" d="M896.03,1002.47h26.99v9.11h-8.97v39.71h-9.32v-39.71h-8.7v-9.11Z"/>
      <path class="cls-1" d="M930.03,1002.47h11.35c6.19,0,10.54.75,13.8,3.94,2.45,2.38,3.94,6.05,3.94,10.2,0,6.39-3.2,10.74-9.38,12.99l11.56,21.69h-10.13l-10.95-20.67h-.88v20.67h-9.31v-48.82ZM939.34,1021.57h4.28c4.22,0,6.39-1.7,6.39-5.03s-2.24-4.96-6.66-4.96h-4.01v10Z"/>
      <path class="cls-1" d="M1017.27,1027.01c0,14.35-11.22,25.43-25.23,25.43s-25.57-11.42-25.57-25.63,11.56-25.57,25.43-25.57,25.36,10.88,25.36,25.77ZM975.86,1027.01c0,9.93,7.48,16.52,16.11,16.52s15.91-7.28,15.91-16.59-6.73-16.79-16.05-16.79c-8.77,0-15.98,6.8-15.98,16.86Z"/>
      <path class="cls-1" d="M1030.67,1002.47h9.11l11.29,34.06,11.42-34.06h8.97l8.23,48.82h-8.97l-5.24-30.87-10.4,30.87h-8.16l-10.27-30.87-5.37,30.87h-9.04l8.43-48.82Z"/>
      <path class="cls-1" d="M1135.59,1027.01c0,14.35-11.22,25.43-25.23,25.43s-25.57-11.42-25.57-25.63,11.56-25.57,25.43-25.57,25.36,10.88,25.36,25.77ZM1094.18,1027.01c0,9.93,7.48,16.52,16.11,16.52s15.91-7.28,15.91-16.59-6.73-16.79-16.05-16.79c-8.77,0-15.98,6.8-15.98,16.86Z"/>
      <path class="cls-1" d="M1137.5,1002.47h9.59l12.24,34.68,12.51-34.68h9.52l-17.61,48.82h-8.91l-17.34-48.82Z"/>
    </g>
  </g>
</svg>